<svg width="536" height="48" viewBox="0 0 536 48" fill="none" xmlns="http://www.w3.org/2000/svg">
<path d="M534.974 14.7754C534.974 21.7749 531.915 26.3755 525.796 28.5773C529.226 29.8521 531.811 31.9264 533.549 34.8004C535.055 37.3499 535.809 40.3165 535.809 43.7004V47.3855H515.088V0H516.896C523.015 0 527.523 1.15885 530.42 3.47656C533.456 5.91016 534.974 9.67643 534.974 14.7754ZM490.613 0.0695324H509.317V47.3855H490.613V0.0695324Z" fill="white"></path>
<path d="M462.591 0.0695324H481.886V13.2109H478.271C471.99 13.2109 467.702 12.2259 465.407 10.2559C463.53 8.63347 462.591 6.01445 462.591 2.39883V0.0695324ZM437.873 0.0695324H456.577V19.1211H470.518V28.1949H456.577V47.316H437.873V0.0695324ZM462.557 44.0133C462.557 39.2156 465.338 35.9592 470.9 34.2441C473.033 33.5952 475.779 33.2707 479.14 33.2707H481.886V47.3855H462.557V44.0133Z" fill="white"></path>
<path d="M383.674 0.0695324H402.378V47.316H383.674V0.0695324ZM408.149 12.9328C408.149 7.81068 409.447 4.36888 412.043 2.60742C414.499 0.961849 419.123 0.139063 425.914 0.139063H429.425V6.70977C429.425 11.9478 428.093 15.6793 425.427 17.9043C422.716 20.1293 418.045 21.2418 411.417 21.2418H408.149V12.9328ZM408.149 24.8574H411.417C417.953 24.8574 422.623 26.1553 425.427 28.7512C428.093 31.2311 429.425 35.148 429.425 40.502V47.3855H425.914C419.262 47.3855 414.638 46.3889 412.043 44.3957C409.447 42.3793 408.149 38.7637 408.149 33.5488V24.8574Z" fill="white"></path>
<path d="M356.418 0.0695324H359.547C368.076 0.0695324 373.163 2.95508 374.809 8.72617C375.365 10.6267 375.643 12.8053 375.643 15.2621V47.3855H356.418V0.0695324ZM330.761 15.2621C330.761 10.14 331.931 6.38529 334.272 3.99805C336.845 1.37904 341.04 0.0695324 346.857 0.0695324H349.986V47.3855H330.761V15.2621Z" fill="white"></path>
<path d="M302.6 0.0695324H321.895V13.2109H318.279C311.998 13.2109 307.711 12.2259 305.416 10.2559C303.539 8.63347 302.6 6.01445 302.6 2.39883V0.0695324ZM277.882 0.0695324H296.586V19.1211H310.527V28.1949H296.586V47.316H277.882V0.0695324ZM302.565 44.0133C302.565 39.2156 305.347 35.9592 310.909 34.2441C313.041 33.5952 315.788 33.2707 319.149 33.2707H321.895V47.3855H302.565V44.0133Z" fill="white"></path>
<path d="M268.322 14.7754C268.322 21.7749 265.262 26.3755 259.144 28.5773C262.574 29.8521 265.158 31.9264 266.896 34.8004C268.403 37.3499 269.156 40.3165 269.156 43.7004V47.3855H248.436V0H250.244C256.362 0 260.87 1.15885 263.768 3.47656C266.804 5.91016 268.322 9.67643 268.322 14.7754ZM223.961 0.0695324H242.665V47.3855H223.961V0.0695324Z" fill="white"></path>
<path d="M209.463 23.432C213.89 25.263 216.103 28.5426 216.103 33.2707C216.103 37.6048 214.585 41.0118 211.549 43.4918C208.374 46.0876 203.866 47.3855 198.025 47.3855H194.827V0.0695324H197.504C203.205 0.0695324 207.562 1.49492 210.575 4.3457C213.333 6.94154 214.712 10.3138 214.712 14.4625C214.712 18.588 212.997 21.5779 209.567 23.432H209.463ZM170.352 0.0695324H189.055V47.316H170.352V0.0695324Z" fill="white"></path>
<path d="M106.939 0.0695324H126.234V13.2109H122.618C116.337 13.2109 112.05 12.2259 109.755 10.2559C107.878 8.63347 106.939 6.01445 106.939 2.39883V0.0695324ZM82.2207 0.0695324H100.925V19.1211H114.866V28.1949H100.925V47.316H82.2207V0.0695324ZM106.904 44.0133C106.904 39.2156 109.686 35.9592 115.248 34.2441C117.38 33.5952 120.127 33.2707 123.487 33.2707H126.234V47.3855H106.904V44.0133Z" fill="white"></path>
<path d="M53.8174 0.0695324H73.008V24.4055H70.5396C64.56 24.4055 60.2722 23.3741 57.6764 21.3113C55.1037 19.2486 53.8174 15.7372 53.8174 10.7773V0.0695324ZM46.8643 47.3855C43.1096 47.3855 39.7721 45.9949 36.8518 43.2137C34.2791 40.7569 32.2627 37.4889 30.8025 33.4098C29.4583 29.6551 28.7861 25.9352 28.7861 22.25C28.7861 16.7107 30.1536 11.7855 32.8885 7.47461C34.8354 4.41523 37.3964 2.25977 40.5717 1.0082C42.1941 0.382422 44.0019 0.0695324 45.9951 0.0695324H48.6721V47.3855H46.8643ZM53.8174 38.3117H71.2002V39.2852C71.2002 41.4406 70.4238 43.26 68.8709 44.7434C66.9704 46.5048 64.2702 47.3855 60.7705 47.3855H53.8174V38.3117Z" fill="white"></path>
<path d="M0 0.0695324H18.7039V47.3855H0V0.0695324Z" fill="white"></path>
</svg>